 <svg viewBox="0 0 24 24" fill="none" xmlns="http://www.w3.org/2000/svg">
    <rect
      opacity="0.5"
      x="10"
      y="18"
      width="4"
      height="2"
      rx="0.6"
      fill="#6788F3"
    ></rect>
    <path
      fill-rule="evenodd"
      clip-rule="evenodd"
      d="M15 19.4C15 19.7314 15.2686 20 15.6 20H19C20.6569 20 22 18.6569 22 17V7C22 5.34315 20.6569 4 19 4H5C3.34315 4 2 5.34315 2 7V17C2 18.6569 3.34315 20 5 20H8.4C8.73137 20 9 19.7314 9 19.4V18.6C9 18.2686 8.73137 18 8.4 18H5C4.44772 18 4 17.5523 4 17V7.38062L10.1259 12.2814C11.2216 13.1579 12.7784 13.1579 13.8741 12.2814L20 7.38062V17C20 17.5523 19.5523 18 19 18H15.6C15.2686 18 15 18.2686 15 18.6V19.4ZM18.5242 6H5.47578L11.3753 10.7196C11.7405 11.0118 12.2595 11.0118 12.6247 10.7196L18.5242 6Z"
      fill="#6788F3"
    ></path>
  </svg>